<svg xmlns="http://www.w3.org/2000/svg" viewBox="0 0 36.6 36.6"><style type="text/css">  
	.st0{fill:#0C77F8;}
</style><title>  link</title><path class="st0" d="M18.3 26.8l-6.4 6.4c-2 2-5.1 2-7.1 0l-1.4-1.4c-2-2-2-5.1 0-7.1l9.2-9.2c2-2 5.1-2 7.1 0l1.4 1.4c0.4 0.3 0.9 0.3 1.3 0 0.4-0.4 0.5-1 0.1-1.4l-1.4-1.4c0 0 0 0 0 0 -2.7-2.7-7.2-2.7-9.9 0L2 23.3c0 0 0 0 0 0 -2.7 2.7-2.7 7.2 0 9.9l1.4 1.4c1.3 1.3 3.1 2.1 4.9 2 1.8 0 3.6-0.7 4.9-2l6.4-6.4c0.3-0.4 0.3-0.9 0-1.3C19.4 26.5 18.7 26.4 18.3 26.8z"/><path class="st0" d="M34.6 3.5L33.2 2c0 0 0 0 0 0 -2.7-2.7-7.2-2.7-9.9 0l-6.4 6.4c-0.3 0.4-0.3 0.9 0 1.3 0.4 0.4 1 0.5 1.4 0.1l6.4-6.4c2-2 5.1-2 7.1 0l1.4 1.4c2 2 2 5.1 0 7.1L24 21.1c-2 2-5.1 2-7.1 0 -0.4-0.3-0.9-0.3-1.3 0 -0.4 0.4-0.5 1-0.1 1.4 1.3 1.3 3.1 2.1 5 2 1.9 0 3.7-0.7 5-2l9.2-9.2c0 0 0 0 0 0C37.4 10.6 37.4 6.2 34.6 3.5z"/></svg>