<svg id="Layer_1" data-name="Layer 1" xmlns="http://www.w3.org/2000/svg" viewBox="0 0 48 48"><defs><style>.cls-1{fill:#0c77f8;}</style></defs><title>logo</title><path class="cls-1" d="M41.17,0H6.83A6.85,6.85,0,0,0,0,6.84V41.16A6.85,6.85,0,0,0,6.83,48H41.17A6.85,6.85,0,0,0,48,41.16V6.84A6.85,6.85,0,0,0,41.17,0Zm-38,6.84A3.69,3.69,0,0,1,6.83,3.16H17.55V27.29H3.15V6.84Zm24.14,38H6.83a3.69,3.69,0,0,1-3.68-3.68V30.45H27.29V44.84ZM24,27.29A3.29,3.29,0,1,1,27.29,24,3.29,3.29,0,0,1,24,27.29ZM44.85,41.16a3.69,3.69,0,0,1-3.68,3.68H30.45V20.71h14.4V41.16Zm0-23.61H20.71V3.16H41.17a3.69,3.69,0,0,1,3.68,3.68V17.55Z"/></svg>