<svg xmlns="http://www.w3.org/2000/svg" viewBox="0 0 48 48"><style type="text/css">  
	.st0{fill:#0C77F8;}
</style><title>  notes</title><path class="st0" d="M37 48H0V4h29c0.6 0 1 0.4 1 1s-0.4 1-1 1H2v40h33V24c0-0.6 0.4-1 1-1s1 0.4 1 1V48z"/><path class="st0" d="M47.8 2c-0.5-1.2-1.6-2-2.8-2 -0.8 0-1.5 0.3-2.1 0.9l-2.8 2.8c0 0 0 0-0.1 0 0 0 0 0 0 0.1L23.8 20c-0.1 0.1-0.1 0.2-0.2 0.2l-2.8 5.7c-0.1 0.1-0.1 0.3-0.1 0.5 0 0.6 0.5 1 1 1 0.2 0 0.3 0 0.4-0.1l5.7-2.8c0.1 0 0.2-0.1 0.3-0.2l19.1-19C48 4.4 48.2 3.1 47.8 2zM26.7 22.7l-2.8 1.4 1.4-2.8L40.7 5.9l1.4 1.4L26.7 22.7zM45.7 3.7l-2.2 2.2 -1.4-1.4 2.1-2.1C44.5 2.1 44.7 2 45 2c0.4 0 0.8 0.3 1 0.7C46.1 3.1 46 3.5 45.7 3.7z"/></svg>