<svg xmlns="http://www.w3.org/2000/svg" viewBox="0 0 48 48"><style type="text/css">  
	.st0{fill:#0C77F8;}
</style><title>  picture</title><path class="st0" d="M0 0v48h48V0H0zM46 2v32h-1.4l-6.8-13.5c-0.4-0.8-1-1.4-1.7-1.8 -2.1-1.2-4.7-0.5-5.9 1.6l-5.3 9C23.3 27.3 20 24 16 24c-4.9 0-8.6 7.6-9.7 10H2V2H46zM42.4 34H8.5c1.5-3.1 4.4-8 7.5-8 4.4 0 8.1 5.5 8.1 5.6 0.2 0.3 0.5 0.5 0.9 0.4 0.4 0 0.7-0.2 0.9-0.5l6-10.3c0.2-0.4 0.6-0.7 1-0.9 1.2-0.6 2.6-0.1 3.1 1.1L42.4 34zM2 46V36h44v10H2z"/><path class="st0" d="M13 18h6c2.5 0 4.8-1.6 5.7-4 1.1-3.1-0.5-6.6-3.7-7.7 -3.1-1.1-6.6 0.5-7.7 3.7 -2.2-0.1-4.1 1.6-4.2 3.8C9.1 16 10.8 17.9 13 18zM13 12c0.2 0 0.5 0 0.7 0.1l1.2 0.5 0.2-1.2c0.3-1.9 2-3.4 4-3.4 2.2 0 4 1.8 4 4s-1.8 4-4 4h-6c-1.1 0-2-0.9-2-2S11.9 12 13 12z"/></svg>