<svg id="Layer_1" data-name="Layer 1" xmlns="http://www.w3.org/2000/svg" viewBox="0 0 165 32"><defs><style>.cls-1{fill:#0c77f8;}</style></defs><title>site-logo</title><path class="cls-1" d="M27,0H4.48A4.52,4.52,0,0,0,0,4.56V27.44A4.52,4.52,0,0,0,4.48,32H27a4.52,4.52,0,0,0,4.48-4.56V4.56A4.52,4.52,0,0,0,27,0ZM2.07,4.56A2.44,2.44,0,0,1,4.48,2.1h7V18.2H2.07V4.56ZM17.88,29.9H4.48a2.44,2.44,0,0,1-2.41-2.45V20.3H17.88v9.6ZM15.72,18.2A2.2,2.2,0,1,1,17.88,16,2.18,2.18,0,0,1,15.72,18.2Zm13.65,9.25A2.44,2.44,0,0,1,27,29.9h-7V13.8h9.43V27.44Zm0-15.74H13.56V2.1H27a2.44,2.44,0,0,1,2.41,2.45V11.7Z" transform="translate(0 0)"/><path class="cls-1" d="M51.82,10.7a5.65,5.65,0,0,0-5,2.49V4.37a1.39,1.39,0,1,0-2.79,0V24.29a1.39,1.39,0,1,0,2.79,0v-1a5.75,5.75,0,0,0,5,2.56A7.24,7.24,0,0,0,59,18.27C59,13.63,55.77,10.7,51.82,10.7ZM51.57,23.11a4.61,4.61,0,0,1-4.75-4.86,4.65,4.65,0,0,1,4.75-4.77,4.53,4.53,0,0,1,4.63,4.77A4.63,4.63,0,0,1,51.57,23.11Z" transform="translate(0 0)"/><path class="cls-1" d="M64.18,2.93A1.41,1.41,0,0,0,62.8,4.37V24.29a1.39,1.39,0,1,0,2.79,0V4.37A1.42,1.42,0,0,0,64.18,2.93Z" transform="translate(0 0)"/><path class="cls-1" d="M76.77,10.7a7.27,7.27,0,0,0-7.47,7.55,7.49,7.49,0,1,0,15,0A7.29,7.29,0,0,0,76.77,10.7Zm0,12.44a4.67,4.67,0,0,1-4.72-4.9,4.72,4.72,0,1,1,9.43,0A4.67,4.67,0,0,1,76.77,23.14Z" transform="translate(0 0)"/><path class="cls-1" d="M94.78,13.44a4.6,4.6,0,0,1,2.73.87,1.5,1.5,0,0,0,2-.12,1.42,1.42,0,0,0-.15-2,7.81,7.81,0,0,0-4.53-1.47,7.42,7.42,0,0,0-7.57,7.55,7.42,7.42,0,0,0,7.57,7.64,7.53,7.53,0,0,0,4.53-1.47,1.42,1.42,0,0,0,.15-2,1.43,1.43,0,0,0-2-.12,4.6,4.6,0,0,1-2.73.87A4.85,4.85,0,0,1,94.78,13.44Z" transform="translate(0 0)"/><path class="cls-1" d="M108.71,17.34l4-4.12a1.44,1.44,0,0,0,0-2,1.36,1.36,0,0,0-1.9,0l-4.69,4.83V4.37a1.39,1.39,0,1,0-2.79,0V24.29a1.39,1.39,0,1,0,2.79,0V18.46l6.25,6.86a1.4,1.4,0,0,0,2-1.93Z" transform="translate(0 0)"/><path class="cls-1" d="M125.62,10.7a5.65,5.65,0,0,0-5,2.49V4.37a1.39,1.39,0,1,0-2.79,0V24.29a1.39,1.39,0,1,0,2.79,0v-1a5.75,5.75,0,0,0,5,2.56,7.24,7.24,0,0,0,7.26-7.61C132.85,13.63,129.57,10.7,125.62,10.7Zm-0.25,12.41a4.61,4.61,0,0,1-4.75-4.86,4.65,4.65,0,0,1,4.75-4.77A4.53,4.53,0,0,1,130,18.24,4.63,4.63,0,0,1,125.37,23.11Z" transform="translate(0 0)"/><path class="cls-1" d="M143.29,10.7a7.27,7.27,0,0,0-7.47,7.55,7.49,7.49,0,1,0,15,0A7.29,7.29,0,0,0,143.29,10.7Zm0,12.44a4.67,4.67,0,0,1-4.72-4.9,4.72,4.72,0,1,1,9.43,0A4.67,4.67,0,0,1,143.29,23.14Z" transform="translate(0 0)"/><path class="cls-1" d="M164.74,23.54l-4.23-6L163.75,13a1.44,1.44,0,0,0-.31-1.93,1.31,1.31,0,0,0-1.87.34l-2.7,4.08-2.7-4.08a1.31,1.31,0,0,0-1.87-.34A1.44,1.44,0,0,0,154,13l3.22,4.55-4.2,6a1.4,1.4,0,0,0,.28,1.93,1.32,1.32,0,0,0,1.87-.34l3.71-5.55,3.71,5.55a1.32,1.32,0,0,0,1.87.34A1.4,1.4,0,0,0,164.74,23.54Z" transform="translate(0 0)"/></svg>